<svg width="50" height="50" viewBox="0 0 50 50" fill="none" xmlns="http://www.w3.org/2000/svg">
<path d="M25 1C28.3281 1 31.4425 1.63066 34.3535 2.88672C37.284 4.15124 39.8235 5.86256 41.9805 8.01953C44.1374 10.1765 45.8488 12.716 47.1133 15.6465C48.3693 18.5575 49 21.6719 49 25C49 28.2847 48.37 31.3785 47.1133 34.291C45.8485 37.2221 44.1363 39.7733 41.9775 41.9521C39.8209 44.1288 37.2821 45.8496 34.3535 47.1133C31.4425 48.3693 28.3281 49 25 49C21.7153 49 18.6215 48.37 15.709 47.1133C12.7796 45.8492 10.2294 44.1279 8.05078 41.9492C5.87215 39.7706 4.15076 37.2204 2.88672 34.291C1.63 31.3785 1 28.2847 1 25C1 21.6719 1.63066 18.5575 2.88672 15.6465C4.15041 12.7179 5.8712 10.1791 8.04785 8.02246C10.2267 5.86367 12.7779 4.15152 15.709 2.88672C18.6215 1.63 21.7153 1 25 1ZM25 2.75C18.8621 2.75 13.5978 4.91623 9.26367 9.22852C4.92675 13.5436 2.75 18.8207 2.75 25C2.75 31.1396 4.92792 36.4045 9.26172 40.7383C13.5955 45.0721 18.8604 47.25 25 47.25C31.1793 47.25 36.4564 45.0733 40.7715 40.7363C45.0838 36.4022 47.25 31.1379 47.25 25C47.25 18.8224 45.085 13.546 40.7695 9.23047C36.454 4.91496 31.1776 2.75 25 2.75ZM25.25 35.8125C25.6599 35.8125 25.9656 35.9421 26.2305 36.207C26.4954 36.4719 26.625 36.7776 26.625 37.1875C26.625 37.5974 26.4954 37.9031 26.2305 38.168C25.9656 38.4329 25.6599 38.5625 25.25 38.5625C24.8401 38.5625 24.5344 38.4329 24.2695 38.168C24.0046 37.9031 23.875 37.5974 23.875 37.1875C23.875 36.7776 24.0046 36.4719 24.2695 36.207C24.5344 35.9421 24.8401 35.8125 25.25 35.8125ZM25.375 11.4375C27.554 11.4375 29.199 12.0438 30.4141 13.1709C31.6205 14.2901 32.25 15.7813 32.25 17.75C32.25 18.8501 32.0126 19.8366 31.5498 20.7266C31.1467 21.5015 30.4739 22.3364 29.4873 23.2246L29.0449 23.6084C27.6015 24.7981 26.5597 25.9873 26.1992 27.1797C25.9844 27.8903 25.85 28.6439 25.7891 29.4375H24.1045C24.1979 28.2856 24.4534 27.3891 24.8379 26.7129C25.37 25.7771 26.2118 24.7884 27.4043 23.7549C28.4868 22.8442 29.3488 21.9357 29.957 21.0234C30.6007 20.0579 30.9375 19.0022 30.9375 17.875C30.9375 16.3914 30.3852 15.1246 29.2861 14.1562C28.1913 13.1917 26.7928 12.75 25.1875 12.75C23.756 12.75 22.4657 13.1233 21.3613 13.9014C20.5253 14.4904 19.8599 15.2547 19.3604 16.1738L17.9209 15.6309C18.5473 14.4646 19.4103 13.5278 20.5156 12.8057C21.9003 11.901 23.5086 11.4375 25.375 11.4375Z" fill="#1F6680" stroke="#1F6680" stroke-width="2"/>
</svg>
