<svg width="106" height="99" viewBox="0 0 106 99" fill="none" xmlns="http://www.w3.org/2000/svg">
<path d="M52.9337 78.7875C59.3379 78.7875 64.7042 76.5417 69.0325 72.05C73.3608 67.5583 75.525 61.9896 75.525 55.3438C75.525 48.6979 73.3608 43.1521 69.0325 38.7062C64.7042 34.2604 59.3379 32.0375 52.9337 32.0375C46.5296 32.0375 41.1854 34.2604 36.9012 38.7062C32.6171 43.1521 30.475 48.6979 30.475 55.3438C30.475 61.9896 32.6171 67.5583 36.9012 72.05C41.1854 76.5417 46.5296 78.7875 52.9337 78.7875ZM52.9337 70.5375C48.7379 70.5375 45.2708 69.0938 42.5325 66.2063C39.7942 63.3188 38.425 59.6979 38.425 55.3438C38.425 50.9896 39.7942 47.3917 42.5325 44.55C45.2708 41.7083 48.7379 40.2875 52.9337 40.2875C57.1296 40.2875 60.6187 41.7083 63.4012 44.55C66.1837 47.3917 67.575 50.9896 67.575 55.3438C67.575 59.6979 66.1837 63.3188 63.4012 66.2063C60.6187 69.0938 57.1296 70.5375 52.9337 70.5375ZM7.95 99C5.83 99 3.975 98.175 2.385 96.525C0.795 94.875 0 92.95 0 90.75V20.2125C0 18.1042 0.795 16.2021 2.385 14.5063C3.975 12.8104 5.83 11.9625 7.95 11.9625H27.4275L37.1 0H68.9L78.5725 11.9625H98.05C100.082 11.9625 101.915 12.8104 103.549 14.5063C105.183 16.2021 106 18.1042 106 20.2125V90.75C106 92.95 105.183 94.875 103.549 96.525C101.915 98.175 100.082 99 98.05 99H7.95ZM7.95 90.75H98.05V20.2125H74.8625L65.19 8.25H40.81L31.1375 20.2125H7.95V90.75Z" fill="white"/>
</svg>
