<svg width="50" height="50" viewBox="0 0 50 50" fill="none" xmlns="http://www.w3.org/2000/svg">
<path d="M24.792 1C28.1361 1.00004 31.2662 1.62387 34.1924 2.86523C37.1369 4.11442 39.705 5.81683 41.9043 7.97168C44.1023 10.1253 45.8361 12.6451 47.1055 15.54C48.3663 18.4156 49 21.5194 49 24.8613C49 28.203 48.3655 31.331 47.1025 34.2559C45.8322 37.1977 44.0981 39.7522 41.9004 41.9277C39.7001 44.1058 37.1314 45.8309 34.1865 47.1025C31.2617 48.3655 28.1337 49 24.792 49C18.1599 49 12.5602 46.664 7.93457 41.9717C3.53935 37.5131 1.23975 32.1824 1.01953 25.9307H3.1875C3.40694 31.5476 5.4883 36.3938 9.42383 40.4209C13.5968 44.6909 18.7406 46.833 24.792 46.833C30.9342 46.8329 36.1687 44.6689 40.4336 40.3555C44.6956 36.0449 46.833 30.7907 46.833 24.6523C46.8329 18.6411 44.6633 13.5306 40.3457 9.38281C36.0365 5.2431 30.8334 3.16707 24.792 3.16699C21.4853 3.16699 18.3749 3.92209 15.4756 5.43262C12.6084 6.92646 10.1125 8.90394 7.99316 11.3604L6.56641 13.0137H15.042V15.1807H2.52734V2.73633H4.69434V11.8115L6.45508 9.74609C8.77422 7.02556 11.5247 4.8888 14.7109 3.3291C17.8835 1.77615 21.24 1 24.792 1ZM26.1523 11.9023V24.4482L26.4531 24.7422L35.2441 33.3408L33.6758 34.9092L23.9863 25.3457V11.9023H26.1523Z" fill="#1F6680" stroke="#1F6680" stroke-width="2"/>
</svg>
