<svg width="100" height="110" viewBox="0 0 100 110" fill="none" xmlns="http://www.w3.org/2000/svg">
<path d="M36.2104 62.2579C32.51 58.9821 30.6598 55.0048 30.6598 50.3262V16.0145C30.6598 11.6096 32.5415 7.83926 36.3048 4.70356C40.0681 1.56785 44.637 0 50.0116 0C55.3873 0 59.9683 1.56785 63.7548 4.70356C67.5402 7.83926 69.4329 11.6096 69.4329 16.0145V50.3262C69.4329 55.0048 67.5694 58.9821 63.8425 62.2579C60.1157 65.5328 55.5031 67.1702 50.005 67.1702C44.5079 67.1702 39.9097 65.5328 36.2104 62.2579ZM44.0041 110V90.9632C31.4329 89.8451 20.9558 85.4277 12.5728 77.7111C4.19095 69.9944 0 60.8661 0 50.3262H12.0845C12.0845 59.0263 15.7799 66.3642 23.1708 72.3397C30.5627 78.3153 39.5019 81.303 49.9884 81.303C60.476 81.303 69.4191 78.3116 76.8176 72.3287C84.2162 66.3457 87.9155 59.0116 87.9155 50.3262H100C100 60.8781 95.8091 70.0091 87.4272 77.7194C79.0442 85.4305 68.5671 89.8423 55.9959 90.9549V110H44.0041ZM54.5093 54.4864C55.6538 53.3314 56.226 51.9447 56.226 50.3262V16.0242C56.226 14.6278 55.6223 13.4332 54.415 12.4405C53.2076 11.4487 51.736 10.9528 50 10.9528C48.264 10.9528 46.7924 11.4487 45.585 12.4405C44.3777 13.4332 43.774 14.6278 43.774 16.0242V50.3262C43.774 51.9447 44.3495 53.3314 45.5006 54.4864C46.6517 55.6404 48.1548 56.2174 50.0099 56.2174C51.8651 56.2174 53.3649 55.6404 54.5093 54.4864Z" fill="white"/>
</svg>
