<svg width="52" height="52" viewBox="0 0 52 52" fill="none" xmlns="http://www.w3.org/2000/svg">
<path d="M9.15809 50.7956C11.3172 50.7956 13.1922 50.1927 14.7831 48.987C16.374 47.7812 17.5482 46.1865 18.3058 44.2028C19.0634 42.2192 19.8115 40.6731 20.5501 39.5646C21.2888 38.456 22.6808 37.0655 24.7263 35.393C27.2263 33.3316 29.0255 31.134 30.124 28.8003C31.2225 26.4665 31.7717 23.6272 31.7717 20.2822C31.7717 15.6147 30.3323 11.7933 27.4535 8.81776C24.5748 5.84227 20.8626 4.35452 16.3172 4.35452C11.8475 4.35452 8.14483 5.78392 5.20923 8.64273C2.27362 11.5015 0.711122 15.148 0.521729 19.5821H3.93082C4.12021 16.1593 5.36074 13.3491 7.65241 11.1515C9.94408 8.9539 12.8323 7.8551 16.3172 7.8551C19.7263 7.8551 22.5861 9.05114 24.8967 11.4432C27.2073 13.8353 28.3626 16.7816 28.3626 20.2822C28.3626 23.0826 27.8323 25.5039 26.7717 27.5459C25.7111 29.5879 23.9498 31.5618 21.4876 33.4677C20.0104 34.5957 18.8267 35.8209 17.9365 37.1433C17.0464 38.4658 16.2035 40.0994 15.4081 42.0441C14.7642 43.6777 13.9214 44.9613 12.8797 45.8948C11.838 46.8283 10.5975 47.295 9.15809 47.295C7.83233 47.295 6.6865 46.8283 5.72059 45.8948C4.75468 44.9613 4.17703 43.8139 3.98764 42.4525H0.578547C0.767941 44.7863 1.67703 46.7602 3.30582 48.3744C4.93461 49.9885 6.88537 50.7956 9.15809 50.7956ZM20.0672 24.1328C21.0899 23.0826 21.6013 21.7991 21.6013 20.2822C21.6013 18.7653 21.0899 17.4623 20.0672 16.3732C19.0445 15.2841 17.7945 14.7396 16.3172 14.7396C14.8399 14.7396 13.571 15.2841 12.5104 16.3732C11.4498 17.4623 10.9195 18.7653 10.9195 20.2822C10.9195 21.7991 11.4498 23.0826 12.5104 24.1328C13.571 25.183 14.8399 25.7081 16.3172 25.7081C17.7945 25.7081 19.0445 25.183 20.0672 24.1328ZM38.4195 32.9426L35.749 30.2588C36.5066 28.7419 37.0748 27.1375 37.4535 25.4455C37.8323 23.7536 38.0217 21.9936 38.0217 20.1655C38.0217 18.3374 37.8323 16.5774 37.4535 14.8854C37.0748 13.1935 36.5255 11.5891 35.8058 10.0721L38.4195 7.38836C39.4043 9.29423 40.1524 11.3071 40.6638 13.4269C41.1751 15.5467 41.4308 17.7734 41.4308 20.1071C41.4308 22.4409 41.1751 24.6774 40.6638 26.8166C40.1524 28.9558 39.4043 30.9978 38.4195 32.9426ZM45.0672 39.5937L42.5104 37.085C43.9498 34.6346 45.0767 31.9897 45.891 29.1503C46.7054 26.311 47.1126 23.3549 47.1126 20.2822C47.1126 17.1705 46.7054 14.1853 45.891 11.3265C45.0767 8.46771 43.9308 5.8131 42.4535 3.36269L45.0104 0.795593C46.7907 3.59606 48.1543 6.63962 49.1013 9.92628C50.0482 13.2129 50.5217 16.6649 50.5217 20.2822C50.5217 23.8605 50.0482 27.2736 49.1013 30.5214C48.1543 33.7691 46.8096 36.7933 45.0672 39.5937Z" fill="#1F6680" stroke="#1F6680"/>
</svg>
